<?xml version="1.0" encoding="utf-8"?>
<!-- Generator: Adobe Illustrator 23.0.3, SVG Export Plug-In . SVG Version: 6.00 Build 0)  -->
<svg version="1.1" xmlns="http://www.w3.org/2000/svg" xmlns:xlink="http://www.w3.org/1999/xlink" x="0px" y="0px"
	 viewBox="0 0 500 500" style="enable-background:new 0 0 500 500;" xml:space="preserve">
<style type="text/css">
	.st0{display:none;}
	.st1{display:inline;}
	.st2{fill:#72E85D;}
	.st3{fill:#0071BC;}
</style>
<g id="Шар_1" class="st0">
	<g class="st1">
		<g>
			<g>
				<polygon class="st2" points="244.2,250 250,244.5 246.1,240.7 240.3,246.2 				"/>
				<polygon class="st2" points="240.3,235.2 212.5,208.6 212.5,219.7 234.5,240.7 				"/>
				<polygon class="st2" points="250,255.5 255.8,250 250,244.5 244.2,250 				"/>
				<polygon class="st2" points="246.1,240.7 240.3,235.2 234.5,240.7 240.3,246.2 				"/>
			</g>
			<g>
				<polygon class="st2" points="287.5,201.1 287.5,190 259.7,216.5 265.5,222.1 				"/>
				<polygon class="st2" points="265.5,222.1 259.7,216.5 253.9,222.1 259.7,227.6 				"/>
			</g>
			<g>
				<polygon class="st2" points="285,240.7 287.5,238.3 287.5,227.2 279.2,235.2 				"/>
				<polygon class="st2" points="279.2,246.2 285,240.7 279.2,235.2 273.4,240.7 				"/>
			</g>
		</g>
		<g>
			<polygon class="st2" points="230.5,263.1 226.6,259.3 220.8,264.8 224.7,268.6 			"/>
			<polygon class="st2" points="236.3,268.6 230.5,274.2 234.5,277.9 240.3,272.4 			"/>
			<polygon class="st2" points="220.8,253.8 212.5,245.8 212.5,256.9 215,259.3 			"/>
		</g>
	</g>
	<g class="st1">
		<polygon class="st3" points="212.5,256.9 234.5,277.9 234.5,310 212.5,310 		"/>
		<g>
			<g>
				<polygon class="st3" points="259.7,235.2 255.8,231.4 250,236.9 253.9,240.7 				"/>
				<polygon class="st3" points="244.2,231.4 250,225.8 212.5,190 212.5,201.1 				"/>
				<polygon class="st3" points="250,236.9 255.8,231.4 250,225.8 244.2,231.4 				"/>
			</g>
			<g>
				<polygon class="st3" points="275.3,231.4 287.5,219.7 287.5,208.6 269.5,225.8 				"/>
				<polygon class="st3" points="275.3,231.4 269.5,225.8 263.7,231.4 269.5,236.9 				"/>
			</g>
			<g>
				<g>
					<polygon class="st3" points="240.3,253.8 236.3,250 230.5,255.5 234.5,259.3 					"/>
					<polygon class="st3" points="240.3,264.8 244.2,268.6 250,263.1 246.1,259.3 					"/>
					<polygon class="st3" points="230.5,244.5 212.5,227.2 212.5,238.3 224.7,250 					"/>
					<polygon class="st3" points="234.5,259.3 240.3,264.8 246.1,259.3 240.3,253.8 					"/>
					<polygon class="st3" points="236.3,250 230.5,244.5 224.7,250 230.5,255.5 					"/>
					<polygon class="st3" points="244.2,268.6 250,274.2 255.8,268.6 250,263.1 					"/>
				</g>
				<g>
					<polygon class="st3" points="255.8,287.2 250,292.8 268,310 279.6,310 					"/>
					<g>
						<polygon class="st3" points="279.2,264.8 287.5,272.8 287.5,261.7 285,259.3 						"/>
						<polygon class="st3" points="269.5,255.5 273.4,259.3 279.2,253.8 275.3,250 						"/>
						<polygon class="st3" points="265.5,277.9 259.7,283.5 287.5,310 287.5,298.9 						"/>
						<polygon class="st3" points="269.5,255.5 275.3,250 269.5,244.5 263.7,250 						"/>
						<polygon class="st3" points="279.2,264.8 285,259.3 279.2,253.8 273.4,259.3 						"/>
						<polygon class="st3" points="259.7,272.4 253.9,277.9 259.7,283.5 265.5,277.9 						"/>
						<path class="st3" d="M287.5,272.8c-8.2,0-14.9,5.3-14.9,11.9l-7-6.7c0-9,9.8-16.2,22-16.2"/>
					</g>
				</g>
			</g>
		</g>
	</g>
</g>
<g id="Шар_2">
	<g>
		<polygon class="st2" points="250,226.9 233.6,211.2 209.4,188.1 93.8,77.5 93.8,123.7 185.3,211.2 209.4,234.3 225.8,250 
			250,273.1 274.2,250 		"/>
		<polygon class="st2" points="290.6,110.6 266.4,133.7 290.6,156.8 314.7,133.7 406.3,46.2 406.3,0 		"/>
		<polygon class="st2" points="371.7,188.1 347.5,211.2 371.7,234.3 395.8,211.2 406.3,201.3 406.3,155.1 		"/>
		<g>
			<polygon class="st2" points="168.9,304.5 152.5,288.8 128.3,311.9 144.7,327.5 			"/>
			<polygon class="st2" points="193,327.5 168.9,350.6 185.3,366.3 209.4,343.2 			"/>
			<polygon class="st2" points="128.3,265.7 93.8,232.6 93.8,278.8 104.2,288.8 			"/>
		</g>
	</g>
	<g>
		<polygon class="st3" points="93.8,278.8 185.3,366.3 185.3,500 93.8,500 		"/>
		<polygon class="st3" points="274.2,172.5 250,149.4 93.8,0 93.8,46.2 225.8,172.5 250,195.5 266.4,211.2 290.6,188.1 		"/>
		<polygon class="st3" points="331.1,149.4 307,172.5 331.1,195.5 355.3,172.5 406.3,123.7 406.3,77.5 		"/>
		<polygon class="st3" points="250,304.5 233.6,288.8 209.4,265.7 193,250 168.9,226.9 93.8,155.1 93.8,201.3 144.7,250 
			168.9,273.1 185.3,288.8 209.4,311.9 225.8,327.5 250,350.6 274.2,327.5 		"/>
		<g>
			<polygon class="st3" points="250,428.2 325.1,500 373.4,500 274.2,405.1 			"/>
			<polygon class="st3" points="266.4,366.3 290.6,389.4 406.3,500 406.3,453.8 314.7,366.3 290.6,343.2 			"/>
			<path class="st3" d="M406.3,344.9v-46.2l-10.4-10l-24.2-23.1L355.3,250l-24.2-23.1L307,250l24.2,23.1l16.4,15.7l17.8,17.1
				c-30,11.1-50.7,34-50.7,60.5l29.4,28.1C344.1,367,371.9,344.9,406.3,344.9z"/>
		</g>
	</g>
</g>
</svg>
